<?xml version="1.0" encoding="utf-8"?>
<!-- Generator: Adobe Illustrator 27.5.0, SVG Export Plug-In . SVG Version: 6.00 Build 0)  -->
<svg version="1.1" xmlns="http://www.w3.org/2000/svg" xmlns:xlink="http://www.w3.org/1999/xlink" x="0px" y="0px"
	 viewBox="0 0 500 500" style="enable-background:new 0 0 500 500;" xml:space="preserve">
<g id="BACKGROUND">
	<rect style="fill:#FFFFFF;" width="500" height="500"/>
</g>
<g id="OBJECTS">
	<g>
		<text transform="matrix(1 0 0 1 99.8149 400.3513)"><tspan x="0" y="0" style="fill:#008ECC; font-family:'MontserratAlternates-Bold'; font-size:54.6971px;">Just</tspan><tspan x="118.691" y="0" style="fill:#FFB229; font-family:'MontserratAlternates-Bold'; font-size:54.6971px;">Travel</tspan></text>
		<text transform="matrix(1 0 0 1 128.5347 425.4255)" style="fill:#80D2FF; font-family:'Montserrat-Bold'; font-size:13.6743px;">Meeting the World Everyday</text>
	</g>
	<g>
		<g>
			<g>
				<path style="fill:#29B3FF;" d="M372.327,172.718c-3.503,3.653-7.069,7.27-10.701,10.851
					C313.47,231.081,253.534,272.59,183.469,303.37c-32.831-22.145-54.425-59.693-54.425-102.282c0-1.315,0.021-2.631,0.064-3.939
					c0.429-13.681,3.088-26.798,7.62-39c12.466-33.546,39.114-60.194,72.66-72.66c13.367-4.968,27.835-7.684,42.938-7.684
					C310.654,77.806,359.511,118.299,372.327,172.718z"/>
				<path style="fill:#FFCC24;" d="M234.806,130.687c0,29.207-23.674,52.881-52.881,52.881c-19.15,0-35.919-10.179-45.197-25.419
					c12.466-33.546,39.114-60.194,72.66-72.66C224.627,94.768,234.806,111.537,234.806,130.687z"/>
				<path style="fill:#008ECC;" d="M361.627,183.568C313.47,231.081,253.534,272.59,183.469,303.37
					c-32.831-22.145-54.425-59.693-54.425-102.282c0-1.315,0.021-2.631,0.064-3.939h41.423l11.694,17.248h-16.083v21.866h23.26
					V160.23h26.09v61.044h13.889v-37.706H361.627z"/>
				<path style="fill:#29B3FF;" d="M321.431,303.201c-5.337,3.62-10.971,6.83-16.854,9.583c-10.177-1.34-20.345,6.589-30.522,9.679
					h-0.008c-2.697,0.482-5.417,0.875-8.17,1.172c-4.013-0.201-8.026-1.742-12.038-5.49c-11.501-10.746-23.001-3.363-34.502,1.758
					c-3.764-1.035-7.464-2.255-11.075-3.636c-5.457-2.095-10.73-4.559-15.778-7.367c-0.048-0.024-0.096-0.056-0.144-0.08
					c0.048-0.024,0.096-0.04,0.144-0.064c3.274-1.477,6.525-2.97,9.759-4.494c17.199,3.17,34.406-21.292,51.597-5.225
					c20.449,19.109,40.907-19.109,61.356,0C317.274,300.978,319.353,302.326,321.431,303.201z"/>
				<path style="fill:#29B3FF;" d="M363.068,255.328c-4.165,8.491-9.27,16.428-15.193,23.684
					c-10.891,5.024-21.79,11.107-32.68,0.931c-20.449-19.109-40.907,19.109-61.356,0c-0.69-0.65-1.38-1.228-2.079-1.742
					c6.95-4.061,13.796-8.25,20.538-12.568c14.302-3.499,28.603-18.162,42.897-4.799
					C331.15,275.745,347.105,255.753,363.068,255.328z"/>
				<path style="fill:#29B3FF;" d="M374.072,220.601c-0.915,5.779-2.239,11.428-3.933,16.91
					c-18.314-7.512-36.629,21.348-54.944,4.238c-1.372-1.284-2.753-2.311-4.133-3.106c4.671-3.531,9.278-7.135,13.82-10.794
					C341.279,230.946,357.675,208.843,374.072,220.601z"/>
				<path style="fill:#29B3FF;" d="M375.604,201.09v0.899c0,0.233-0.008,0.473-0.008,0.706c-5.754-4.88-11.509-5.369-17.263-4.005
					c5.433-5.128,10.754-10.345,15.963-15.666C375.155,188.923,375.604,194.959,375.604,201.09z"/>
			</g>
			<rect x="193.286" y="153.344" style="fill:#008ECC;" width="19.233" height="3.999"/>
			<path style="fill:#008ECC;" d="M202.903,124.156L202.903,124.156c-1.21,0-2.191,0.981-2.191,2.191v24.59h4.381v-24.59
				C205.093,125.137,204.112,124.156,202.903,124.156z"/>
		</g>
		<g>
			<path style="fill:#FFCC24;" d="M303.966,108.436c19.121,0.032,38.46-1.052,57.912-3.306
				c9.289,16.744,18.976,33.317,29.056,49.706c-62.823,71.588-150.83,132.59-259.035,168.822
				C210.413,261.671,268.247,186.731,303.966,108.436z"/>
			<path style="fill:#FFB229;" d="M174.867,298.261c57.394-52.919,106.764-121.993,137.944-188.474
				c15.853-0.15,28.503,6.146,44.35,4.493c7.448,13.285,20.104,21.426,28.037,34.47
				C330.156,209.975,254.995,264.403,174.867,298.261z"/>
			<g>
				<path style="fill:#008ECC;" d="M395.076,148.123c-1.361,2.243-2.742,4.477-4.142,6.711
					c-9.683-10.153-19.012-20.517-27.976-31.092c-0.125,0.211-0.249,0.412-0.384,0.614c-6.117,10.182-22.828,26.049-23,26.049
					c1.582,3.691,3.183,7.382,4.794,11.064c-1.85,2.502-3.72,4.995-5.618,7.478c-3.816-3.509-7.574-7.047-11.275-10.613
					c-5.273-1.524-10.508-3.125-15.676-4.794c1.918-2.387,3.797-4.784,5.657-7.191c4.477-0.182,8.964-0.431,13.451-0.738
					c0.086,0,8.926-19.933,15.12-29.827c0.125-0.201,0.259-0.403,0.383-0.594c-14.448-1.639-28.609-3.912-42.444-6.75
					c1.448-1.985,2.867-3.96,4.276-5.954c0.019-0.01,4.171-5.925,12.31-5.062c5.944,0.738,26.251,0.518,36.874-0.297
					c4.506-7.747,8.092-14.535,8.102-14.535c0.096,0.01,8.389-13.509,15.331-10.278c1.333,0.604,2.205,1.611,2.742,2.847
					l0.009,0.019c2.349,5.417-1.611,15.254-1.687,15.254c0,0-3.557,6.932-8.025,14.851c5.311,8.696,16.136,25.254,19.971,29.827
					C399.093,141.393,395.095,148.123,395.076,148.123z"/>
				<path style="opacity:0.1;" d="M395.076,148.123c-1.361,2.243-2.742,4.477-4.142,6.711
					c-9.683-10.153-19.012-20.517-27.976-31.092c-0.125,0.211-0.249,0.412-0.384,0.614c-6.117,10.182-22.828,26.049-23,26.049
					c1.582,3.691,3.183,7.382,4.794,11.064c-1.85,2.502-3.72,4.995-5.618,7.478c-3.816-3.509-7.574-7.047-11.275-10.613
					l53.383-86.019l2.742,2.847l0.009,0.019c2.349,5.417-1.611,15.254-1.687,15.254c0,0-3.557,6.932-8.025,14.851
					c5.311,8.696,16.136,25.254,19.971,29.827C399.093,141.393,395.095,148.123,395.076,148.123z"/>
				<path style="fill:#FFFFFF;" d="M311.692,105.038c1.655-2.298,4.5-3.778,7.44-3.816l8.469-0.24
					c5.644-0.137,11.288-0.23,16.927-0.322l8.45-0.152c1.401-0.037,2.819-0.07,4.184-0.159l0.514-0.031
					c0.132-0.011,0.262-0.028,0.392-0.052c0.259-0.051,0.512-0.133,0.751-0.246c0.479-0.225,0.901-0.571,1.216-0.998l4.172-7.221
					c1.403-2.442,2.871-4.85,4.316-7.273l0.034-0.056l0.015-0.022c0.652-0.862,1.347-1.76,2.063-2.603
					c0.717-0.851,1.484-1.661,2.287-2.435c0.809-0.768,1.665-1.491,2.598-2.107c0.467-0.306,0.947-0.597,1.464-0.814
					c0.51-0.218,1.056-0.406,1.611-0.389c-0.548,0.069-1.036,0.33-1.492,0.614c-0.457,0.288-0.885,0.619-1.294,0.972
					c-0.813,0.712-1.554,1.501-2.26,2.318c-0.696,0.829-1.346,1.693-1.98,2.57c-0.634,0.887-1.211,1.775-1.807,2.717l0.048-0.078
					c-1.303,2.508-2.584,5.031-3.93,7.519l-1.999,3.744l-1.02,1.861l-0.511,0.93l-0.255,0.465c-0.086,0.155-0.217,0.369-0.342,0.538
					c-0.514,0.715-1.209,1.299-2.003,1.685c-0.397,0.193-0.818,0.337-1.25,0.427c-0.217,0.044-0.435,0.075-0.655,0.095l-0.543,0.028
					c-1.453,0.081-2.858,0.101-4.278,0.126c-2.833,0.038-5.658,0.072-8.484,0.038c-5.65-0.031-11.297-0.14-16.943-0.316
					c-2.822-0.091-5.647-0.19-8.466-0.324C316.416,101.869,313.615,102.948,311.692,105.038z"/>
			</g>
		</g>
	</g>
</g>
</svg>
